<mxfile host="Electron" modified="2023-12-04T02:50:50.388Z" agent="Mozilla/5.0 (Macintosh; Intel Mac OS X 10_15_7) AppleWebKit/537.36 (KHTML, like Gecko) draw.io/22.1.2 Chrome/114.0.5735.289 Electron/25.9.4 Safari/537.36" etag="kKNSW-L2DfHkDRK92NDi" version="22.1.2" type="device">
  <diagram name="ページ1" id="6IlQcY1F9OegZGBcQg-E">
    <mxGraphModel dx="1094" dy="843" grid="1" gridSize="10" guides="1" tooltips="1" connect="1" arrows="1" fold="1" page="1" pageScale="1" pageWidth="827" pageHeight="1169" math="0" shadow="0">
      <root>
        <mxCell id="0" />
        <mxCell id="1" parent="0" />
        <mxCell id="dmf8R7bw3R75HuSk_g69-10" style="edgeStyle=orthogonalEdgeStyle;rounded=0;orthogonalLoop=1;jettySize=auto;html=1;exitX=0.5;exitY=1;exitDx=0;exitDy=0;entryX=0.5;entryY=0;entryDx=0;entryDy=0;" edge="1" parent="1" source="dmf8R7bw3R75HuSk_g69-1" target="dmf8R7bw3R75HuSk_g69-2">
          <mxGeometry relative="1" as="geometry" />
        </mxCell>
        <mxCell id="dmf8R7bw3R75HuSk_g69-13" style="edgeStyle=orthogonalEdgeStyle;rounded=0;orthogonalLoop=1;jettySize=auto;html=1;exitX=0.5;exitY=1;exitDx=0;exitDy=0;entryX=0.5;entryY=0;entryDx=0;entryDy=0;" edge="1" parent="1" source="dmf8R7bw3R75HuSk_g69-1" target="dmf8R7bw3R75HuSk_g69-9">
          <mxGeometry relative="1" as="geometry" />
        </mxCell>
        <mxCell id="dmf8R7bw3R75HuSk_g69-29" style="edgeStyle=orthogonalEdgeStyle;rounded=0;orthogonalLoop=1;jettySize=auto;html=1;exitX=0.5;exitY=1;exitDx=0;exitDy=0;entryX=0.5;entryY=0;entryDx=0;entryDy=0;" edge="1" parent="1" source="dmf8R7bw3R75HuSk_g69-1" target="dmf8R7bw3R75HuSk_g69-3">
          <mxGeometry relative="1" as="geometry" />
        </mxCell>
        <mxCell id="dmf8R7bw3R75HuSk_g69-1" value="トップ" style="rounded=0;whiteSpace=wrap;html=1;" vertex="1" parent="1">
          <mxGeometry x="240" y="40" width="120" height="60" as="geometry" />
        </mxCell>
        <mxCell id="dmf8R7bw3R75HuSk_g69-14" style="edgeStyle=orthogonalEdgeStyle;rounded=0;orthogonalLoop=1;jettySize=auto;html=1;exitX=0.5;exitY=1;exitDx=0;exitDy=0;entryX=0.5;entryY=0;entryDx=0;entryDy=0;" edge="1" parent="1" source="dmf8R7bw3R75HuSk_g69-2" target="dmf8R7bw3R75HuSk_g69-4">
          <mxGeometry relative="1" as="geometry" />
        </mxCell>
        <mxCell id="dmf8R7bw3R75HuSk_g69-20" style="edgeStyle=orthogonalEdgeStyle;rounded=0;orthogonalLoop=1;jettySize=auto;html=1;exitX=0.5;exitY=1;exitDx=0;exitDy=0;entryX=0.5;entryY=0;entryDx=0;entryDy=0;" edge="1" parent="1" source="dmf8R7bw3R75HuSk_g69-2" target="dmf8R7bw3R75HuSk_g69-19">
          <mxGeometry relative="1" as="geometry" />
        </mxCell>
        <mxCell id="dmf8R7bw3R75HuSk_g69-2" value="ログイン" style="rounded=0;whiteSpace=wrap;html=1;" vertex="1" parent="1">
          <mxGeometry x="240" y="160" width="120" height="60" as="geometry" />
        </mxCell>
        <mxCell id="dmf8R7bw3R75HuSk_g69-3" value="新規登録" style="rounded=0;whiteSpace=wrap;html=1;" vertex="1" parent="1">
          <mxGeometry x="400" y="160" width="120" height="60" as="geometry" />
        </mxCell>
        <mxCell id="dmf8R7bw3R75HuSk_g69-15" style="edgeStyle=orthogonalEdgeStyle;rounded=0;orthogonalLoop=1;jettySize=auto;html=1;exitX=0.5;exitY=1;exitDx=0;exitDy=0;entryX=0.5;entryY=0;entryDx=0;entryDy=0;" edge="1" parent="1" source="dmf8R7bw3R75HuSk_g69-4" target="dmf8R7bw3R75HuSk_g69-5">
          <mxGeometry relative="1" as="geometry" />
        </mxCell>
        <mxCell id="dmf8R7bw3R75HuSk_g69-16" style="edgeStyle=orthogonalEdgeStyle;rounded=0;orthogonalLoop=1;jettySize=auto;html=1;exitX=0.5;exitY=1;exitDx=0;exitDy=0;" edge="1" parent="1" source="dmf8R7bw3R75HuSk_g69-4" target="dmf8R7bw3R75HuSk_g69-8">
          <mxGeometry relative="1" as="geometry" />
        </mxCell>
        <mxCell id="dmf8R7bw3R75HuSk_g69-4" value="一覧" style="rounded=0;whiteSpace=wrap;html=1;" vertex="1" parent="1">
          <mxGeometry x="240" y="280" width="120" height="60" as="geometry" />
        </mxCell>
        <mxCell id="dmf8R7bw3R75HuSk_g69-17" style="edgeStyle=orthogonalEdgeStyle;rounded=0;orthogonalLoop=1;jettySize=auto;html=1;exitX=0.5;exitY=1;exitDx=0;exitDy=0;entryX=0.5;entryY=0;entryDx=0;entryDy=0;" edge="1" parent="1" source="dmf8R7bw3R75HuSk_g69-5" target="dmf8R7bw3R75HuSk_g69-6">
          <mxGeometry relative="1" as="geometry" />
        </mxCell>
        <mxCell id="dmf8R7bw3R75HuSk_g69-18" style="edgeStyle=orthogonalEdgeStyle;rounded=0;orthogonalLoop=1;jettySize=auto;html=1;exitX=0.5;exitY=1;exitDx=0;exitDy=0;entryX=0.5;entryY=0;entryDx=0;entryDy=0;" edge="1" parent="1" source="dmf8R7bw3R75HuSk_g69-5" target="dmf8R7bw3R75HuSk_g69-7">
          <mxGeometry relative="1" as="geometry" />
        </mxCell>
        <mxCell id="dmf8R7bw3R75HuSk_g69-26" style="edgeStyle=orthogonalEdgeStyle;rounded=0;orthogonalLoop=1;jettySize=auto;html=1;exitX=0.5;exitY=1;exitDx=0;exitDy=0;entryX=0.5;entryY=0;entryDx=0;entryDy=0;" edge="1" parent="1" source="dmf8R7bw3R75HuSk_g69-5" target="dmf8R7bw3R75HuSk_g69-25">
          <mxGeometry relative="1" as="geometry" />
        </mxCell>
        <mxCell id="dmf8R7bw3R75HuSk_g69-5" value="詳細" style="rounded=0;whiteSpace=wrap;html=1;" vertex="1" parent="1">
          <mxGeometry x="160" y="400" width="120" height="60" as="geometry" />
        </mxCell>
        <mxCell id="dmf8R7bw3R75HuSk_g69-6" value="編集" style="rounded=0;whiteSpace=wrap;html=1;" vertex="1" parent="1">
          <mxGeometry x="160" y="520" width="120" height="60" as="geometry" />
        </mxCell>
        <mxCell id="dmf8R7bw3R75HuSk_g69-7" value="削除" style="rounded=0;whiteSpace=wrap;html=1;" vertex="1" parent="1">
          <mxGeometry x="320" y="520" width="120" height="60" as="geometry" />
        </mxCell>
        <mxCell id="dmf8R7bw3R75HuSk_g69-8" value="新規" style="rounded=0;whiteSpace=wrap;html=1;" vertex="1" parent="1">
          <mxGeometry x="320" y="400" width="120" height="60" as="geometry" />
        </mxCell>
        <mxCell id="dmf8R7bw3R75HuSk_g69-9" value="問い合わせ" style="rounded=0;whiteSpace=wrap;html=1;" vertex="1" parent="1">
          <mxGeometry x="80" y="160" width="120" height="60" as="geometry" />
        </mxCell>
        <mxCell id="dmf8R7bw3R75HuSk_g69-23" style="edgeStyle=orthogonalEdgeStyle;rounded=0;orthogonalLoop=1;jettySize=auto;html=1;exitX=0.5;exitY=1;exitDx=0;exitDy=0;entryX=0.5;entryY=0;entryDx=0;entryDy=0;" edge="1" parent="1" source="dmf8R7bw3R75HuSk_g69-19" target="dmf8R7bw3R75HuSk_g69-21">
          <mxGeometry relative="1" as="geometry" />
        </mxCell>
        <mxCell id="dmf8R7bw3R75HuSk_g69-24" style="edgeStyle=orthogonalEdgeStyle;rounded=0;orthogonalLoop=1;jettySize=auto;html=1;exitX=0.5;exitY=1;exitDx=0;exitDy=0;entryX=0.5;entryY=0;entryDx=0;entryDy=0;" edge="1" parent="1" source="dmf8R7bw3R75HuSk_g69-19" target="dmf8R7bw3R75HuSk_g69-22">
          <mxGeometry relative="1" as="geometry" />
        </mxCell>
        <mxCell id="dmf8R7bw3R75HuSk_g69-19" value="設定" style="rounded=0;whiteSpace=wrap;html=1;" vertex="1" parent="1">
          <mxGeometry x="600" y="280" width="120" height="60" as="geometry" />
        </mxCell>
        <mxCell id="dmf8R7bw3R75HuSk_g69-21" value="ユーザ情報編集" style="rounded=0;whiteSpace=wrap;html=1;" vertex="1" parent="1">
          <mxGeometry x="520" y="400" width="120" height="60" as="geometry" />
        </mxCell>
        <mxCell id="dmf8R7bw3R75HuSk_g69-22" value="通知設定" style="rounded=0;whiteSpace=wrap;html=1;" vertex="1" parent="1">
          <mxGeometry x="680" y="400" width="120" height="60" as="geometry" />
        </mxCell>
        <mxCell id="dmf8R7bw3R75HuSk_g69-25" value="タグ印刷" style="rounded=0;whiteSpace=wrap;html=1;" vertex="1" parent="1">
          <mxGeometry y="520" width="120" height="60" as="geometry" />
        </mxCell>
        <mxCell id="dmf8R7bw3R75HuSk_g69-28" value="ログアウト後" style="rounded=0;whiteSpace=wrap;html=1;" vertex="1" parent="1">
          <mxGeometry x="560" y="160" width="120" height="60" as="geometry" />
        </mxCell>
      </root>
    </mxGraphModel>
  </diagram>
</mxfile>
